<?xml version="1.0" encoding="iso-8859-1"?>
<!-- Generator: Adobe Illustrator 19.0.0, SVG Export Plug-In . SVG Version: 6.00 Build 0)  -->
<svg version="1.1" id="Layer_1" xmlns="http://www.w3.org/2000/svg" xmlns:xlink="http://www.w3.org/1999/xlink" x="0px" y="0px"
	 viewBox="0 0 506.4 506.4" style="enable-background:new 0 0 506.4 506.4;" xml:space="preserve">
<circle style="fill:#CB5A30;" cx="253.2" cy="253.2" r="249.2"/>
<path style="fill:#F4EFEF;" d="M205.6,253.2L205.6,253.2l97.2,97.2c3.6,3.6,3.6,9.6,0,13.2l-9.2,9.2c-3.6,3.6-9.6,3.6-13.2,0
	L167.2,259.6c-2-2-2.8-4.4-2.8-6.8s0.8-4.8,2.8-6.8l113.2-113.2c3.6-3.6,9.6-3.6,13.2,0l9.2,9.2c3.6,3.6,3.6,9.6,0,13.2L205.6,253.2
	z"/>
<path d="M286.8,380L286.8,380c-3.6,0-6.8-1.2-9.6-4L164,262.8c-2.4-2.4-4-6-4-9.6s1.2-7.2,4-9.6l113.2-113.2c5.2-5.2,14-5.2,19.2,0
	l9.2,9.2c2.4,2.4,4,6,4,9.6s-1.2,6.8-4,9.6l-94.4,94.4l94.4,94.4c5.2,5.2,5.2,13.6,0,19.2l-9.2,9.2C294,378.4,290.4,380,286.8,380z
	 M287.2,134.4c-1.6,0-2.8,0.4-4,1.6L170,249.2c-1.2,1.2-1.6,2.4-1.6,4s0.4,2.8,1.6,4l113.2,113.2c1.2,1.2,2.4,1.6,4,1.6l0,0
	c1.6,0,2.8-0.4,4-1.6l9.2-9.2c2-2,2-5.6,0-7.6l-97.2-97.2c-0.8-0.8-1.2-1.6-1.2-2.8s0.4-2,1.2-2.8l97.6-97.6c1.2-1.2,1.6-2.4,1.6-4
	s-0.4-2.8-1.6-4l-9.2-9.2C290,135.2,288.4,134.4,287.2,134.4z"/>
<path d="M253.2,506.4C113.6,506.4,0,392.8,0,253.2S113.6,0,253.2,0s253.2,113.6,253.2,253.2S392.8,506.4,253.2,506.4z M253.2,8
	C118,8,8,118,8,253.2s110,245.2,245.2,245.2s245.2-110,245.2-245.2S388.4,8,253.2,8z"/>
<g>
</g>
<g>
</g>
<g>
</g>
<g>
</g>
<g>
</g>
<g>
</g>
<g>
</g>
<g>
</g>
<g>
</g>
<g>
</g>
<g>
</g>
<g>
</g>
<g>
</g>
<g>
</g>
<g>
</g>
</svg>
