<?xml version="1.0" encoding="iso-8859-1"?>
<!-- Generator: Adobe Illustrator 19.0.0, SVG Export Plug-In . SVG Version: 6.00 Build 0)  -->
<svg version="1.1" id="Layer_1" xmlns="http://www.w3.org/2000/svg" xmlns:xlink="http://www.w3.org/1999/xlink" x="0px" y="0px"
	 viewBox="0 0 506.4 506.4" style="enable-background:new 0 0 506.4 506.4;" xml:space="preserve">
<circle style="fill:#CB5A30;" cx="253.2" cy="253.2" r="249.2"/>
<path style="fill:#F4EFEF;" d="M294,253.2L294,253.2L196.8,156c-3.6-3.6-3.6-9.6,0-13.2l9.2-9.2c3.6-3.6,9.6-3.6,13.2,0l113.2,113.2
	c2,2,2.8,4.4,2.8,6.8s-0.8,4.8-2.8,6.8L219.2,373.6c-3.6,3.6-9.6,3.6-13.2,0l-9.2-9.2c-3.6-3.6-3.6-9.6,0-13.2L294,253.2z"/>
<path d="M212.4,379.6c-3.6,0-6.8-1.2-9.6-4l-9.2-9.2c-5.2-5.2-5.2-13.6,0-19.2l94.4-94.4l-94.4-94.4c-2.4-2.4-4-6-4-9.6
	s1.2-6.8,4-9.6l9.2-9.2c2.4-2.4,6-4,9.6-4l0,0c3.6,0,6.8,1.2,9.6,4l113.2,113.2c2.4,2.4,4,6,4,9.6s-1.2,7.2-4,9.6L222,375.6
	C219.6,378.4,216,379.6,212.4,379.6z M212.8,134.4c-1.6,0-2.8,0.4-4,1.6l-9.2,9.2c-1.2,1.2-1.6,2.4-1.6,4s0.4,2.8,1.6,4l97.2,97.2
	c0.8,0.8,1.2,1.6,1.2,2.8s-0.4,2-1.2,2.8l-97.6,97.6c-1.2,1.2-1.6,2.4-1.6,4s0.4,2.8,1.6,4l9.2,9.2c2,2,5.6,2,7.6,0l113.2-113.2
	c1.2-1.2,1.6-2.4,1.6-4s-0.4-2.8-1.6-4L216,136.4C215.6,135.2,214,134.4,212.8,134.4L212.8,134.4z"/>
<path d="M253.2,506.4C113.6,506.4,0,392.8,0,253.2S113.6,0,253.2,0s253.2,113.6,253.2,253.2S392.8,506.4,253.2,506.4z M253.2,8
	C118,8,8,118,8,253.2s110,245.2,245.2,245.2s245.2-110,245.2-245.2S388.4,8,253.2,8z"/>
<g>
</g>
<g>
</g>
<g>
</g>
<g>
</g>
<g>
</g>
<g>
</g>
<g>
</g>
<g>
</g>
<g>
</g>
<g>
</g>
<g>
</g>
<g>
</g>
<g>
</g>
<g>
</g>
<g>
</g>
</svg>
